<?xml version="1.0" ?><svg viewBox="0 0 64 64" xmlns="http://www.w3.org/2000/svg"><g data-name="07-twich" id="_07-twich"><rect height="62" rx="6" style="fill:#7a56bf" width="62" x="1" y="1"/><path d="M57,1H7A6,6,0,0,0,1,7V17A22,22,0,0,0,23,39H41A22,22,0,0,0,63,17V7A6,6,0,0,0,57,1Z" style="fill:#875fd4"/><path d="M57,1H7A6,6,0,0,0,1,7v4A6,6,0,0,1,7,5H57a6,6,0,0,1,6,6V7A6,6,0,0,0,57,1Z" style="fill:#9a6ded"/><path d="M57,59H7a6,6,0,0,1-6-6v4a6,6,0,0,0,6,6H57a6,6,0,0,0,6-6V53A6,6,0,0,1,57,59Z" style="fill:#4f3382"/><polygon points="20 10 53 10 53 35 38 50 31 50 22 58 22 50 11 50 11 19 20 10" style="fill:#fdfef9"/><rect height="10" style="fill:#fdfef9" width="4" x="40" y="20"/><rect height="10" style="fill:#fdfef9" width="4" x="31" y="20"/><path d="M49,14V34l-6,6H36l-6,5V40H23V14ZM44,30V20H40V30Zm-9,0V20H31V30Z" style="fill:#7a56bf"/><polygon points="31 50 22 58 22 61 31 53 38 53 53 38 53 35 38 50 31 50" style="fill:#4f3382"/><rect height="3" style="fill:#4f3382" width="11" x="11" y="50"/></g></svg>